PathFileType	4	(X/Y/Z)	./resultDataOpenSim/trcMotMarkerGrf/sub06/qtm-03-02.trc
DataRate	CameraRate	NumFrames	NumMarkers	Units	OrigDataRate	OrigDataStartFrame	OrigNumFrames
250.000000	250.000000	5	24	m	250.000000	63	502
Frame#	Time	L.Toe.Tip			R.Toe.Tip			L.Ankle.Lat			R.Ankle.Lat			L.Ankle.Med			R.Ankle.Med			L.Heel			R.Heel			L.Knee.Lat			R.Knee.Lat			L.Knee.Med			R.Knee.Med			L.Thigh.Upper			R.Thigh.Upper			L.ASIS			R.ASIS			V.Sacral			L.Acromium			R.Acromium			C7			L.Elbow			R.Elbow			L.Wrist.Lat			R.Wrist.Lat
		X1	Y1	Z1	X2	Y2	Z2	X3	Y3	Z3	X4	Y4	Z4	X5	Y5	Z5	X6	Y6	Z6	X7	Y7	Z7	X8	Y8	Z8	X9	Y9	Z9	X10	Y10	Z10	X11	Y11	Z11	X12	Y12	Z12	X13	Y13	Z13	X14	Y14	Z14	X15	Y15	Z15	X16	Y16	Z16	X17	Y17	Z17	X18	Y18	Z18	X19	Y19	Z19	X20	Y20	Z20	X21	Y21	Z21	X22	Y22	Z22	X23	Y23	Z23	X24	Y24	Z24

63	0.248	-1.2861754	0.079114606	-0.10697763	-0.73346129	0.036252426	0.0685481	-1.2914609	0.20917515	-0.12527053	-0.86835929	0.060939307	0.084870644	-1.2697521	0.20885909	-0.044612828	-0.84597729	0.078853403	-0.0016890309	-1.3387742	0.26147345	-0.070123866	-0.92233875	0.037447061	0.021135429	-0.95071561	0.36929039	-0.15974353	-0.78954259	0.43793244	0.1223884	-0.94481729	0.35451308	-0.039884721	-0.82746876	0.4272802	-0.0014359331	-0.9770367	0.76020459	-0.15136225	-0.94112534	0.78430628	0.19024835	-0.89620319	0.81074059	-0.11580648	-0.86191997	0.83194281	0.12453388	-1.0663865	0.89900089	0.032120438	-0.93888078	1.302922	-0.17060642	-0.9399617	1.2882757	0.19301605	-1.0140964	1.3383895	0.010555642	-0.95480512	0.9788444	-0.22583753	-1.0406833	0.98792204	0.25368789	-0.77073655	0.81503698	-0.21670082	-0.92103607	0.77886784	0.28336914
64	0.252	-1.2701729	0.079425513	-0.10759371	-0.73361844	0.036273565	0.068661289	-1.2773151	0.20926751	-0.12502281	-0.86860686	0.060988111	0.084985402	-1.2550036	0.20906307	-0.044571612	-0.84605139	0.078928099	-0.0015681184	-1.3254347	0.26078482	-0.069600913	-0.92240736	0.037461648	0.021166486	-0.93815524	0.37141029	-0.15964231	-0.7884035	0.43775395	0.12262099	-0.93269703	0.35679803	-0.03938648	-0.82549669	0.42760719	-0.0013122846	-0.97090919	0.76220518	-0.15111622	-0.9364281	0.78534948	0.19064611	-0.89030279	0.81260104	-0.11565204	-0.85588969	0.83336096	0.1255087	-1.0602529	0.90085491	0.032258303	-0.93350103	1.3047908	-0.17054107	-0.93384515	1.2904324	0.19306932	-1.0082836	1.3402035	0.01067235	-0.95053625	0.98098885	-0.22583107	-1.0323903	0.98964749	0.25468939	-0.7678901	0.81528087	-0.21740654	-0.91130862	0.78152333	0.28371277
65	0.256	-1.2538641	0.079588853	-0.10815859	-0.73375665	0.03629261	0.068762415	-1.2630588	0.20915189	-0.12480074	-0.86881765	0.061035092	0.085089387	-1.2405805	0.20900242	-0.044389647	-0.84611369	0.079001349	-0.0014664745	-1.3120092	0.25982647	-0.069079402	-0.92246393	0.037486714	0.021192371	-0.9256509	0.37369057	-0.15946794	-0.78732228	0.43759735	0.12281792	-0.92076479	0.35913157	-0.038681761	-0.82376967	0.42794745	-0.0011839329	-0.96467918	0.76427593	-0.15080437	-0.93058994	0.78661276	0.19139075	-0.88442921	0.81445887	-0.11552731	-0.84956325	0.83485027	0.1265606	-1.0541303	0.90272336	0.032366405	-0.92812624	1.3067064	-0.17047058	-0.92774424	1.292652	0.19310077	-1.0024798	1.3420427	0.010802271	-0.94616197	0.98312196	-0.22532271	-1.0244222	0.99144499	0.25513433	-0.76512639	0.81561242	-0.21812646	-0.90156835	0.78426016	0.28403206
66	0.26	-1.237227	0.079616955	-0.10868894	-0.73387158	0.036307345	0.068847078	-1.2486989	0.20882699	-0.12458482	-0.86897962	0.061076188	0.08517553	-1.2262572	0.20876601	-0.044168344	-0.84616065	0.079072585	-0.0013809998	-1.2985386	0.25860402	-0.068614533	-0.92250989	0.03751959	0.021213519	-0.91320347	0.37611137	-0.15923064	-0.78626091	0.4374596	0.12298588	-0.90867092	0.36150326	-0.037966916	-0.82209476	0.42829655	-0.0010903446	-0.95825107	0.76637251	-0.15036861	-0.92440487	0.78796699	0.19226716	-0.8784912	0.81633688	-0.11535843	-0.84322007	0.83638042	0.12763236	-1.0480596	0.90458634	0.032537932	-0.92275016	1.3086634	-0.17038691	-0.92166224	1.2949196	0.19311544	-0.99668575	1.3439094	0.01094587	-0.94174153	0.98522396	-0.22441496	-1.0166663	0.99326551	0.25533946	-0.7624945	0.8160225	-0.2188795	-0.89181749	0.78706752	0.2843205
67	0.264	-1.2202298	0.079520804	-0.10922436	-0.73396559	0.036318193	0.068913252	-1.2342379	0.2083049	-0.12437227	-0.86909847	0.061104593	0.085242078	-1.2118776	0.20839439	-0.043957759	-0.8461959	0.079142141	-0.0013076046	-1.2850544	0.25713215	-0.068291587	-0.92255137	0.037553857	0.021232129	-0.90082496	0.37864619	-0.15893651	-0.78517787	0.43733728	0.12313213	-0.89624103	0.36396269	-0.037369614	-0.82040089	0.42865541	-0.0010106272	-0.95167308	0.76848233	-0.14985434	-0.91846852	0.78930977	0.19309697	-0.87247961	0.81824684	-0.11512195	-0.83740079	0.83791087	0.12861308	-1.0420306	0.90642978	0.032779659	-0.91737016	1.3106478	-0.17029365	-0.91558778	1.2972142	0.1931127	-0.99089705	1.3458031	0.011095962	-0.93734435	0.98734662	-0.22337153	-1.0089955	0.99509734	0.25558629	-0.76000903	0.81650132	-0.21967982	-0.88206489	0.78994157	0.28457969
